<svg width="32" height="32" viewBox="0 0 32 32" fill="none" xmlns="http://www.w3.org/2000/svg">
<circle cx="16" cy="16" r="16" fill="#F5F6F7"/>
<path fillRule="evenodd" clipRule="evenodd" d="M15.9998 17C17.9328 17 19.4998 15.433 19.4998 13.5C19.4998 11.567 17.9328 10 15.9998 10C14.0668 10 12.4998 11.567 12.4998 13.5C12.4998 15.433 14.0668 17 15.9998 17ZM15.9998 15.2C16.9387 15.2 17.6998 14.4389 17.6998 13.5C17.6998 12.5611 16.9387 11.8 15.9998 11.8C15.0609 11.8 14.2998 12.5611 14.2998 13.5C14.2998 14.4389 15.0609 15.2 15.9998 15.2Z" fill="#98A2B3"/>
<path fillRule="evenodd" clipRule="evenodd" d="M8.24268 13.7699C8.24268 9.48026 11.7141 6 15.9998 6C20.2855 6 23.757 9.48026 23.757 13.7699C23.757 16.903 21.7829 20.6225 18.1922 24.8679C18.0891 24.9898 17.976 25.1029 17.8541 25.206C16.6433 26.2301 14.8315 26.0787 13.8074 24.8679L13.2403 24.1974L13.2461 24.1923C10.0115 20.2269 8.24268 16.7357 8.24268 13.7699ZM15.1848 23.7091C15.5675 24.1576 16.2411 24.2128 16.6917 23.8317C16.7372 23.7932 16.7794 23.751 16.8179 23.7055C20.3631 19.5139 21.957 16.2221 21.957 13.7699C21.957 10.4712 19.2883 7.8 15.9998 7.8C12.7114 7.8 10.0427 10.4712 10.0427 13.7699C10.0427 16.2221 11.6365 19.5139 15.1817 23.7055L15.1848 23.7091Z" fill="#98A2B3"/>
</svg>
