<svg width="24" height="24" viewBox="0 0 24 24" fill="none" xmlns="http://www.w3.org/2000/svg">
<path d="M13.7144 9.42857C13.241 9.42857 12.8572 9.81233 12.8572 10.2857C12.8572 10.7591 13.241 11.1429 13.7144 11.1429H17.1429C17.6163 11.1429 18.0001 10.7591 18.0001 10.2857C18.0001 9.81233 17.6163 9.42857 17.1429 9.42857H13.7144Z" fill="#344054"/>
<path d="M14.5715 13.7143C14.5715 13.2409 14.9553 12.8571 15.4286 12.8571H17.1429C17.6163 12.8571 18.0001 13.2409 18.0001 13.7143C18.0001 14.1877 17.6163 14.5714 17.1429 14.5714H15.4286C14.9553 14.5714 14.5715 14.1877 14.5715 13.7143Z" fill="#344054"/>
<path d="M9.42864 8.57143C10.3758 8.57143 11.1429 9.33857 11.1429 10.2857C11.1429 11.2329 10.3758 12 9.42864 12C8.4815 12 7.71436 11.2329 7.71436 10.2857C7.71436 9.33857 8.4815 8.57143 9.42864 8.57143Z" fill="#344054"/>
<path d="M6.43078 15.4286C6.19291 15.4286 6.00007 15.2357 6.00007 14.9979C6.00007 13.3768 8.14293 12.8571 9.42864 12.8571C10.7144 12.8571 12.8572 13.2857 12.8572 15V14.9979C12.8572 15.2357 12.6644 15.4286 12.4265 15.4286H6.43078Z" fill="#344054"/>
<path fillRule="evenodd" clipRule="evenodd" d="M9.39113 3.42857C8.22281 3.42856 7.29364 3.42856 6.54399 3.48981C5.77634 3.55253 5.12176 3.68372 4.5224 3.98911C3.55471 4.48217 2.76796 5.26893 2.27489 6.23662C1.96951 6.83597 1.83831 7.49055 1.77559 8.25821C1.71434 9.00786 1.71435 9.93702 1.71436 11.1053V12.8946C1.71435 14.063 1.71434 14.9921 1.77559 15.7418C1.83831 16.5094 1.96951 17.164 2.27489 17.7634C2.76796 18.7311 3.55471 19.5178 4.5224 20.0109C5.12176 20.3163 5.77634 20.4475 6.54399 20.5102C7.29362 20.5714 8.22276 20.5714 9.39104 20.5714H14.609C15.7773 20.5714 16.7065 20.5714 17.4561 20.5102C18.2238 20.4475 18.8784 20.3163 19.4777 20.0109C20.4454 19.5178 21.2322 18.7311 21.7252 17.7634C22.0306 17.164 22.1618 16.5094 22.2245 15.7418C22.2858 14.9922 22.2858 14.063 22.2858 12.8947V11.1053C22.2858 9.93705 22.2858 9.00783 22.2245 8.25821C22.1618 7.49055 22.0306 6.83597 21.7252 6.23662C21.2322 5.26893 20.4454 4.48217 19.4777 3.98911C18.8784 3.68372 18.2238 3.55253 17.4561 3.48981C16.7065 3.42856 15.7773 3.42856 14.609 3.42857H9.39113ZM5.30067 5.51655C5.61808 5.35482 6.02195 5.25246 6.68359 5.1984C7.35524 5.14352 8.21439 5.14286 9.42864 5.14286H14.5715C15.7858 5.14286 16.6449 5.14352 17.3165 5.1984C17.9782 5.25246 18.3821 5.35482 18.6995 5.51655C19.3446 5.84526 19.8691 6.36976 20.1978 7.01489C20.3595 7.3323 20.4619 7.73616 20.516 8.39781C20.5708 9.06946 20.5715 9.9286 20.5715 11.1429V12.8571C20.5715 14.0714 20.5708 14.9305 20.516 15.6022C20.4619 16.2638 20.3595 16.6677 20.1978 16.9851C19.8691 17.6302 19.3446 18.1547 18.6995 18.4834C18.3821 18.6452 17.9782 18.7475 17.3165 18.8016C16.6449 18.8565 15.7858 18.8571 14.5715 18.8571H9.42864C8.21439 18.8571 7.35524 18.8565 6.68359 18.8016C6.02195 18.7475 5.61808 18.6452 5.30067 18.4834C4.65555 18.1547 4.13104 17.6302 3.80233 16.9851C3.64061 16.6677 3.53824 16.2638 3.48418 15.6022C3.42931 14.9305 3.42864 14.0714 3.42864 12.8571V11.1429C3.42864 9.9286 3.42931 9.06946 3.48418 8.39781C3.53824 7.73616 3.64061 7.3323 3.80233 7.01489C4.13104 6.36976 4.65555 5.84526 5.30067 5.51655Z" fill="#344054"/>
</svg>
