<svg width="24" height="24" viewBox="0 0 24 24" fill="none" xmlns="http://www.w3.org/2000/svg">
<path fillRule="evenodd" clipRule="evenodd" d="M12.0023 3.8C9.87548 3.8 8.15229 5.52292 8.15229 7.64708C8.15229 10.1038 9.60919 12.7479 10.9395 14.6239C11.4913 15.4021 12.5397 15.4001 13.0886 14.6201C14.4082 12.7447 15.8523 10.1029 15.8523 7.64708C15.8523 5.52292 14.1291 3.8 12.0023 3.8ZM6.35229 7.64708C6.35229 4.52776 8.88241 2 12.0023 2C15.1222 2 17.6523 4.52776 17.6523 7.64708C17.6523 10.695 15.9152 13.7309 14.5607 15.6559C13.2964 17.4527 10.742 17.4572 9.47124 15.6651C8.10655 13.7407 6.35229 10.7004 6.35229 7.64708Z" fill="#344054"/>
<path d="M13.7523 7.74998C13.7523 8.71647 12.9688 9.49998 12.0023 9.49998C11.0358 9.49998 10.2523 8.71647 10.2523 7.74998C10.2523 6.78348 11.0358 5.99998 12.0023 5.99998C12.9688 5.99998 13.7523 6.78348 13.7523 7.74998Z" fill="#344054"/>
<path fillRule="evenodd" clipRule="evenodd" d="M17.211 14.3208C17.5309 13.9403 18.0986 13.8912 18.4791 14.211C19.3118 14.911 20.0046 15.7999 20.0046 17C20.0046 18.7532 18.9408 20.0376 17.466 20.8364C16.0105 21.6248 14.0721 22.0015 12 22.0015C9.90962 22.0015 7.9728 21.5699 6.52462 20.7575C5.0775 19.9456 4 18.6694 4 17C4 15.8112 4.71235 14.9041 5.51422 14.2167C5.89159 13.8932 6.45976 13.9368 6.78327 14.3142C7.10677 14.6916 7.0631 15.2597 6.68573 15.5832C6.03417 16.1418 5.8 16.5935 5.8 17C5.8 17.7887 6.29248 18.5633 7.40534 19.1876C8.51715 19.8114 10.1303 20.2015 12 20.2015C13.8879 20.2015 15.5018 19.8532 16.6087 19.2537C17.6961 18.6647 18.2046 17.8983 18.2046 17C18.2046 16.5791 17.9849 16.1471 17.3209 15.5889C16.9404 15.269 16.8912 14.7013 17.211 14.3208Z" fill="#344054"/>
</svg>
