<svg width="20" height="20" viewBox="0 0 20 20" fill="none" xmlns="http://www.w3.org/2000/svg">
<g clip-path="url(#clip0_5451_14265)">
<path d="M6.66732 12.5C6.66732 12.0398 7.04041 11.6667 7.50065 11.6667H12.5007C12.9609 11.6667 13.334 12.0398 13.334 12.5C13.334 12.9603 12.9609 13.3334 12.5007 13.3334H7.50065C7.04041 13.3334 6.66732 12.9603 6.66732 12.5Z" fill="#344054"/>
<path fill-rule="evenodd" clip-rule="evenodd" d="M10.0007 5.00002C8.61994 5.00002 7.50065 6.11931 7.50065 7.50002C7.50065 8.88073 8.61994 10 10.0007 10C11.3814 10 12.5007 8.88073 12.5007 7.50002C12.5007 6.11931 11.3814 5.00002 10.0007 5.00002ZM9.16732 7.50002C9.16732 7.03978 9.54041 6.66669 10.0007 6.66669C10.4609 6.66669 10.834 7.03978 10.834 7.50002C10.834 7.96026 10.4609 8.33335 10.0007 8.33335C9.54041 8.33335 9.16732 7.96026 9.16732 7.50002Z" fill="#344054"/>
<path fill-rule="evenodd" clip-rule="evenodd" d="M3.33398 3.33335C3.33398 2.41288 4.08018 1.66669 5.00065 1.66669H15.0007C15.9211 1.66669 16.6673 2.41288 16.6673 3.33335V17.5C16.6673 17.8204 16.4837 18.1123 16.195 18.2511C15.9063 18.3899 15.5635 18.3509 15.3134 18.1507L13.8125 16.95L12.6732 18.0893C12.373 18.3895 11.895 18.416 11.5634 18.1507L10.0007 16.9005L8.4379 18.1507C8.10632 18.416 7.62832 18.3895 7.32806 18.0893L6.1888 16.95L4.6879 18.1507C4.43776 18.3509 4.09505 18.3899 3.80633 18.2511C3.51761 18.1123 3.33398 17.8204 3.33398 17.5V3.33335ZM15.0007 3.33335L5.00065 3.33335V15.7662L5.73007 15.1826C6.06165 14.9174 6.53965 14.9438 6.83991 15.2441L7.97916 16.3834L9.48007 15.1826C9.78442 14.9391 10.2169 14.9391 10.5212 15.1826L12.0221 16.3834L13.1614 15.2441C13.4616 14.9438 13.9397 14.9174 14.2712 15.1826L15.0007 15.7662V3.33335Z" fill="#344054"/>
</g>
<defs>
<clipPath id="clip0_5451_14265">
<rect width="16.6667" height="16.6667" fill="white" transform="translate(1.66699 1.66669)"/>
</clipPath>
</defs>
</svg>
