<svg width="22" height="19" viewBox="0 0 22 19" fill="none" xmlns="http://www.w3.org/2000/svg">
<path d="M11.377 4.2C11.377 5.736 10.977 6.992 10.177 7.968H14.473C16.105 7.968 17.345 8.344 18.193 9.096C19.041 9.848 19.465 10.92 19.465 12.312C19.465 13.56 19.065 14.552 18.265 15.288C17.481 16.024 16.417 16.392 15.073 16.392C14.689 16.392 14.241 16.344 13.729 16.248V14.208C14.097 14.304 14.473 14.352 14.857 14.352C15.593 14.352 16.169 14.168 16.585 13.8C17.001 13.416 17.209 12.888 17.209 12.216C17.209 11.528 16.977 10.992 16.513 10.608C16.065 10.208 15.449 10.008 14.665 10.008H4.945V13.152C4.945 14.032 5.145 14.736 5.545 15.264C5.945 15.792 6.537 16.056 7.321 16.056C8.041 16.056 8.609 15.816 9.025 15.336C9.457 14.84 9.673 14.192 9.673 13.392V12.984H12.097V13.32C12.097 14.824 11.673 16.016 10.825 16.896C9.993 17.776 8.841 18.216 7.369 18.216C5.785 18.216 4.569 17.744 3.721 16.8C2.889 15.84 2.473 14.584 2.473 13.032V7.968H4.969C6.297 7.968 7.281 7.656 7.921 7.032C8.561 6.392 8.881 5.448 8.881 4.2V2.352H0.049V0.24H21.457V2.352H11.377V4.2Z" fill="#1D2939"/>
</svg>
