<svg width="20" height="20" viewBox="0 0 20 20" fill="none" xmlns="http://www.w3.org/2000/svg">
<rect width="20" height="20" rx="10" fill="url(#paint0_linear_228_5283)"/>
<path d="M5.79289 5.79289C6.18342 5.40237 6.81658 5.40237 7.20711 5.79289L10 8.585L12.7929 5.79289C13.1834 5.40237 13.8166 5.40237 14.2071 5.79289C14.5976 6.18342 14.5976 6.81658 14.2071 7.20711L11.415 10L14.2071 12.7929C14.5676 13.1534 14.5953 13.7206 14.2903 14.1129L14.2071 14.2071C13.8166 14.5976 13.1834 14.5976 12.7929 14.2071L10 11.415L7.20711 14.2071C6.81658 14.5976 6.18342 14.5976 5.79289 14.2071C5.40237 13.8166 5.40237 13.1834 5.79289 12.7929L8.585 10L5.79289 7.20711C5.43241 6.84662 5.40468 6.27939 5.7097 5.8871L5.79289 5.79289Z" fill="white"/>
<defs>
<linearGradient id="paint0_linear_228_5283" x1="-10" y1="10" x2="10" y2="30" gradientUnits="userSpaceOnUse">
<stop stop-color="#FF5263"/>
<stop offset="1" stop-color="#FF3347"/>
</linearGradient>
</defs>
</svg>
