<svg width="20" height="20" viewBox="0 0 20 20" fill="none" xmlns="http://www.w3.org/2000/svg">
<path fillRule="evenodd" clipRule="evenodd" d="M9.99972 19.7841C15.4437 19.7841 19.8569 15.3709 19.8569 9.92697C19.8569 4.48302 15.4437 0.0698242 9.99972 0.0698242C4.55577 0.0698242 0.142578 4.48302 0.142578 9.92697C0.142578 15.3709 4.55577 19.7841 9.99972 19.7841ZM15.0985 7.6328C15.4193 7.31202 15.4193 6.79191 15.0985 6.47113C14.7777 6.15034 14.2576 6.15034 13.9368 6.47113L8.35691 12.051L6.06275 9.75684C5.74196 9.43605 5.22186 9.43605 4.90108 9.75684C4.58029 10.0776 4.58029 10.5977 4.90108 10.9185L7.77608 13.7935C7.93012 13.9476 8.13906 14.0341 8.35691 14.0341C8.57477 14.0341 8.7837 13.9476 8.93775 13.7935L15.0985 7.6328Z" fill="#039855"/>
</svg>
